<svg xmlns="http://www.w3.org/2000/svg" width="28" height="26" viewBox="0 0 28 26" shape-rendering="crispEdges">
<!-- RX3 1.19 BROWSE image 0xa11; RGB565 recolour 0x07e0 to 0xf800, matching rx3_images.c. Native 0xf81f transparency. -->
<path fill="#000000" d="M0 0h26v1H0z"/>
<path fill="#000000" d="M0 1h26v1H0z"/>
<path fill="#000000" d="M0 2h26v1H0z"/>
<path fill="#000000" d="M0 3h26v1H0z"/>
<path fill="#000000" d="M0 4h1v1H0z"/>
<path fill="#ff0000" d="M1 4h24v1H1z"/>
<path fill="#000000" d="M25 4h1v1H25z"/>
<path fill="#000000" d="M0 5h1v1H0z"/>
<path fill="#ff0000" d="M1 5h24v1H1z"/>
<path fill="#000000" d="M25 5h1v1H25z"/>
<path fill="#000000" d="M0 6h1v1H0z"/>
<path fill="#ff0000" d="M1 6h15v1H1z"/>
<path fill="#ce0000" d="M16 6h1v1H16z"/>
<path fill="#ff0000" d="M17 6h1v1H17z"/>
<path fill="#bd0000" d="M18 6h1v1H18z"/>
<path fill="#de0000" d="M19 6h1v1H19z"/>
<path fill="#ff0000" d="M20 6h5v1H20z"/>
<path fill="#000000" d="M25 6h1v1H25z"/>
<path fill="#000000" d="M0 7h1v1H0z"/>
<path fill="#ff0000" d="M1 7h15v1H1z"/>
<path fill="#730000" d="M16 7h1v1H16z"/>
<path fill="#ff0000" d="M17 7h1v1H17z"/>
<path fill="#ad0000" d="M18 7h1v1H18z"/>
<path fill="#bd0000" d="M19 7h1v1H19z"/>
<path fill="#de0000" d="M20 7h1v1H20z"/>
<path fill="#ff0000" d="M21 7h4v1H21z"/>
<path fill="#000000" d="M25 7h1v1H25z"/>
<path fill="#000000" d="M0 8h1v1H0z"/>
<path fill="#ff0000" d="M1 8h7v1H1z"/>
<path fill="#9c0000" d="M8 8h1v1H8z"/>
<path fill="#ff0000" d="M9 8h5v1H9z"/>
<path fill="#ef0000" d="M14 8h1v1H14z"/>
<path fill="#8c0000" d="M15 8h1v1H15z"/>
<path fill="#310000" d="M16 8h2v1H16z"/>
<path fill="#100000" d="M18 8h1v1H18z"/>
<path fill="#210000" d="M19 8h1v1H19z"/>
<path fill="#8c0000" d="M20 8h1v1H20z"/>
<path fill="#ff0000" d="M21 8h4v1H21z"/>
<path fill="#000000" d="M25 8h1v1H25z"/>
<path fill="#000000" d="M0 9h1v1H0z"/>
<path fill="#ff0000" d="M1 9h7v1H1z"/>
<path fill="#310000" d="M8 9h1v1H8z"/>
<path fill="#ff0000" d="M9 9h5v1H9z"/>
<path fill="#ef0000" d="M14 9h1v1H14z"/>
<path fill="#8c0000" d="M15 9h1v1H15z"/>
<path fill="#520000" d="M16 9h1v1H16z"/>
<path fill="#de0000" d="M17 9h1v1H17z"/>
<path fill="#9c0000" d="M18 9h1v1H18z"/>
<path fill="#de0000" d="M19 9h1v1H19z"/>
<path fill="#ff0000" d="M20 9h5v1H20z"/>
<path fill="#000000" d="M25 9h1v1H25z"/>
<path fill="#000000" d="M0 10h1v1H0z"/>
<path fill="#ff0000" d="M1 10h7v1H1z"/>
<path fill="#310000" d="M8 10h1v1H8z"/>
<path fill="#ff0000" d="M9 10h7v1H9z"/>
<path fill="#730000" d="M16 10h1v1H16z"/>
<path fill="#ff0000" d="M17 10h1v1H17z"/>
<path fill="#ad0000" d="M18 10h1v1H18z"/>
<path fill="#de0000" d="M19 10h1v1H19z"/>
<path fill="#ff0000" d="M20 10h5v1H20z"/>
<path fill="#000000" d="M25 10h1v1H25z"/>
<path fill="#000000" d="M0 11h1v1H0z"/>
<path fill="#ff0000" d="M1 11h7v1H1z"/>
<path fill="#310000" d="M8 11h1v1H8z"/>
<path fill="#ff0000" d="M9 11h6v1H9z"/>
<path fill="#bd0000" d="M15 11h1v1H15z"/>
<path fill="#420000" d="M16 11h1v1H16z"/>
<path fill="#730000" d="M17 11h1v1H17z"/>
<path fill="#310000" d="M18 11h1v1H18z"/>
<path fill="#100000" d="M19 11h1v1H19z"/>
<path fill="#520000" d="M20 11h1v1H20z"/>
<path fill="#ff0000" d="M21 11h4v1H21z"/>
<path fill="#000000" d="M25 11h1v1H25z"/>
<path fill="#000000" d="M0 12h1v1H0z"/>
<path fill="#ff0000" d="M1 12h7v1H1z"/>
<path fill="#310000" d="M8 12h1v1H8z"/>
<path fill="#ff0000" d="M9 12h5v1H9z"/>
<path fill="#ef0000" d="M14 12h1v1H14z"/>
<path fill="#520000" d="M15 12h1v1H15z"/>
<path fill="#310000" d="M16 12h1v1H16z"/>
<path fill="#ad0000" d="M17 12h1v1H17z"/>
<path fill="#730000" d="M18 12h1v1H18z"/>
<path fill="#ce0000" d="M19 12h1v1H19z"/>
<path fill="#ff0000" d="M20 12h5v1H20z"/>
<path fill="#000000" d="M25 12h1v1H25z"/>
<path fill="#000000" d="M0 13h1v1H0z"/>
<path fill="#ff0000" d="M1 13h7v1H1z"/>
<path fill="#310000" d="M8 13h1v1H8z"/>
<path fill="#bd0000" d="M9 13h1v1H9z"/>
<path fill="#420000" d="M10 13h1v1H10z"/>
<path fill="#210000" d="M11 13h1v1H11z"/>
<path fill="#630000" d="M12 13h1v1H12z"/>
<path fill="#ef0000" d="M13 13h1v1H13z"/>
<path fill="#ff0000" d="M14 13h2v1H14z"/>
<path fill="#730000" d="M16 13h1v1H16z"/>
<path fill="#ff0000" d="M17 13h1v1H17z"/>
<path fill="#ad0000" d="M18 13h1v1H18z"/>
<path fill="#de0000" d="M19 13h1v1H19z"/>
<path fill="#ff0000" d="M20 13h5v1H20z"/>
<path fill="#000000" d="M25 13h1v1H25z"/>
<path fill="#000000" d="M0 14h1v1H0z"/>
<path fill="#ff0000" d="M1 14h7v1H1z"/>
<path fill="#100000" d="M8 14h1v1H8z"/>
<path fill="#630000" d="M9 14h1v1H9z"/>
<path fill="#ef0000" d="M10 14h1v1H10z"/>
<path fill="#de0000" d="M11 14h1v1H11z"/>
<path fill="#000000" d="M12 14h1v1H12z"/>
<path fill="#8c0000" d="M13 14h1v1H13z"/>
<path fill="#ff0000" d="M14 14h2v1H14z"/>
<path fill="#bd0000" d="M16 14h1v1H16z"/>
<path fill="#ff0000" d="M17 14h1v1H17z"/>
<path fill="#ef0000" d="M18 14h2v1H18z"/>
<path fill="#ff0000" d="M20 14h5v1H20z"/>
<path fill="#000000" d="M25 14h1v1H25z"/>
<path fill="#000000" d="M0 15h1v1H0z"/>
<path fill="#ff0000" d="M1 15h7v1H1z"/>
<path fill="#310000" d="M8 15h1v1H8z"/>
<path fill="#ff0000" d="M9 15h3v1H9z"/>
<path fill="#210000" d="M12 15h1v1H12z"/>
<path fill="#730000" d="M13 15h1v1H13z"/>
<path fill="#ff0000" d="M14 15h11v1H14z"/>
<path fill="#000000" d="M25 15h1v1H25z"/>
<path fill="#000000" d="M0 16h1v1H0z"/>
<path fill="#ff0000" d="M1 16h7v1H1z"/>
<path fill="#310000" d="M8 16h1v1H8z"/>
<path fill="#ff0000" d="M9 16h2v1H9z"/>
<path fill="#de0000" d="M11 16h1v1H11z"/>
<path fill="#000000" d="M12 16h1v1H12z"/>
<path fill="#bd0000" d="M13 16h1v1H13z"/>
<path fill="#ff0000" d="M14 16h11v1H14z"/>
<path fill="#000000" d="M25 16h1v1H25z"/>
<path fill="#000000" d="M0 17h1v1H0z"/>
<path fill="#ff0000" d="M1 17h7v1H1z"/>
<path fill="#310000" d="M8 17h1v1H8z"/>
<path fill="#ff0000" d="M9 17h2v1H9z"/>
<path fill="#520000" d="M11 17h1v1H11z"/>
<path fill="#420000" d="M12 17h1v1H12z"/>
<path fill="#ff0000" d="M13 17h12v1H13z"/>
<path fill="#000000" d="M25 17h1v1H25z"/>
<path fill="#000000" d="M0 18h1v1H0z"/>
<path fill="#ff0000" d="M1 18h7v1H1z"/>
<path fill="#310000" d="M8 18h1v1H8z"/>
<path fill="#bd0000" d="M9 18h1v1H9z"/>
<path fill="#630000" d="M10 18h1v1H10z"/>
<path fill="#310000" d="M11 18h1v1H11z"/>
<path fill="#ef0000" d="M12 18h1v1H12z"/>
<path fill="#ff0000" d="M13 18h12v1H13z"/>
<path fill="#000000" d="M25 18h1v1H25z"/>
<path fill="#000000" d="M0 19h1v1H0z"/>
<path fill="#ff0000" d="M1 19h7v1H1z"/>
<path fill="#ce0000" d="M8 19h1v1H8z"/>
<path fill="#630000" d="M9 19h1v1H9z"/>
<path fill="#9c0000" d="M10 19h1v1H10z"/>
<path fill="#ef0000" d="M11 19h1v1H11z"/>
<path fill="#ff0000" d="M12 19h13v1H12z"/>
<path fill="#000000" d="M25 19h1v1H25z"/>
<path fill="#000000" d="M0 20h1v1H0z"/>
<path fill="#ff0000" d="M1 20h24v1H1z"/>
<path fill="#000000" d="M25 20h1v1H25z"/>
<path fill="#000000" d="M0 21h1v1H0z"/>
<path fill="#ff0000" d="M1 21h24v1H1z"/>
<path fill="#000000" d="M25 21h1v1H25z"/>
<path fill="#000000" d="M0 22h1v1H0z"/>
<path fill="#ff0000" d="M1 22h24v1H1z"/>
<path fill="#000000" d="M25 22h1v1H25z"/>
<path fill="#000000" d="M0 23h26v1H0z"/>
<path fill="#000000" d="M0 24h26v1H0z"/>
<path fill="#000000" d="M0 25h26v1H0z"/>
</svg>
