<svg xmlns="http://www.w3.org/2000/svg" viewBox="0 0 300 120">
<rect width="300" height="120" fill="#101215"/>
<rect x="4" y="37.59" width="2" height="44.81" fill="rgb(167,62,62)"/>
<rect x="6" y="40.98" width="2" height="38.05" fill="rgb(169,74,89)"/>
<rect x="8" y="43.38" width="2" height="33.25" fill="rgb(172,90,102)"/>
<rect x="10" y="45.06" width="2" height="29.87" fill="rgb(176,108,94)"/>
<rect x="12" y="46.25" width="2" height="27.5" fill="rgb(180,126,70)"/>
<rect x="14" y="47.06" width="2" height="25.87" fill="rgb(185,144,42)"/>
<rect x="16" y="47.62" width="2" height="24.77" fill="rgb(190,159,26)"/>
<rect x="18" y="47.97" width="2" height="24.07" fill="rgb(195,170,31)"/>
<rect x="20" y="48.18" width="2" height="23.64" fill="rgb(201,177,54)"/>
<rect x="22" y="48.28" width="2" height="23.43" fill="rgb(206,178,82)"/>
<rect x="24" y="48.31" width="2" height="23.37" fill="rgb(212,174,100)"/>
<rect x="26" y="48.28" width="2" height="23.43" fill="rgb(217,165,98)"/>
<rect x="28" y="48.21" width="2" height="23.58" fill="rgb(222,152,77)"/>
<rect x="30" y="21.11" width="2" height="77.78" fill="rgb(227,136,49)"/>
<rect x="32" y="28.34" width="2" height="63.31" fill="rgb(231,117,29)"/>
<rect x="34" y="33.55" width="2" height="52.89" fill="rgb(235,99,28)"/>
<rect x="36" y="37.30" width="2" height="45.41" fill="rgb(238,82,47)"/>
<rect x="38" y="39.96" width="2" height="40.08" fill="rgb(240,67,75)"/>
<rect x="40" y="41.86" width="2" height="36.29" fill="rgb(242,57,97)"/>
<rect x="42" y="43.19" width="2" height="33.63" fill="rgb(242,52,101)"/>
<rect x="44" y="44.11" width="2" height="31.79" fill="rgb(242,52,84)"/>
<rect x="46" y="44.73" width="2" height="30.54" fill="rgb(241,57,56)"/>
<rect x="48" y="45.14" width="2" height="29.71" fill="rgb(239,67,32)"/>
<rect x="50" y="45.41" width="2" height="29.19" fill="rgb(236,81,26)"/>
<rect x="52" y="45.56" width="2" height="28.88" fill="rgb(233,98,40)"/>
<rect x="54" y="45.63" width="2" height="28.73" fill="rgb(229,117,68)"/>
<rect x="56" y="45.66" width="2" height="28.68" fill="rgb(225,135,93)"/>
<rect x="58" y="45.66" width="2" height="28.69" fill="rgb(220,151,102)"/>
<rect x="60" y="12.99" width="2" height="94.01" fill="rgb(214,165,90)"/>
<rect x="62" y="22.04" width="2" height="75.92" fill="rgb(209,174,64)"/>
<rect x="64" y="28.57" width="2" height="62.86" fill="rgb(203,178,37)"/>
<rect x="66" y="33.28" width="2" height="53.44" fill="rgb(197,177,26)"/>
<rect x="68" y="36.67" width="2" height="46.65" fill="rgb(192,171,35)"/>
<rect x="70" y="39.12" width="2" height="41.76" fill="rgb(187,159,60)"/>
<rect x="72" y="40.89" width="2" height="38.23" fill="rgb(182,144,87)"/>
<rect x="74" y="42.16" width="2" height="35.67" fill="rgb(178,127,102)"/>
<rect x="76" y="43.09" width="2" height="33.81" fill="rgb(174,108,95)"/>
<rect x="78" y="43.78" width="2" height="32.44" fill="rgb(171,90,72)"/>
<rect x="80" y="44.29" width="2" height="31.42" fill="rgb(168,74,44)"/>
<rect x="82" y="44.68" width="2" height="30.64" fill="rgb(167,62,27)"/>
<rect x="84" y="44.99" width="2" height="30.02" fill="rgb(166,54,30)"/>
<rect x="86" y="45.24" width="2" height="29.52" fill="rgb(166,51,52)"/>
<rect x="88" y="45.45" width="2" height="29.09" fill="rgb(167,54,81)"/>
<rect x="90" y="13.07" width="2" height="93.86" fill="rgb(168,61,100)"/>
<rect x="92" y="22.67" width="2" height="74.65" fill="rgb(171,73,99)"/>
<rect x="94" y="29.56" width="2" height="60.88" fill="rgb(174,89,79)"/>
<rect x="96" y="34.51" width="2" height="50.98" fill="rgb(178,107,51)"/>
<rect x="98" y="38.08" width="2" height="43.85" fill="rgb(182,126,29)"/>
<rect x="100" y="40.66" width="2" height="38.69" fill="rgb(187,143,27)"/>
<rect x="102" y="42.55" width="2" height="34.91" fill="rgb(192,158,45)"/>
<rect x="104" y="43.94" width="2" height="32.13" fill="rgb(198,170,73)"/>
<rect x="106" y="44.98" width="2" height="30.05" fill="rgb(204,177,96)"/>
<rect x="108" y="45.77" width="2" height="28.47" fill="rgb(209,178,101)"/>
<rect x="110" y="46.38" width="2" height="27.24" fill="rgb(215,175,86)"/>
<rect x="112" y="46.87" width="2" height="26.26" fill="rgb(220,166,58)"/>
<rect x="114" y="47.27" width="2" height="25.46" fill="rgb(225,153,34)"/>
<rect x="116" y="47.61" width="2" height="24.79" fill="rgb(230,136,26)"/>
<rect x="118" y="47.89" width="2" height="24.22" fill="rgb(233,118,39)"/>
<rect x="120" y="21.23" width="2" height="77.54" fill="rgb(237,100,66)"/>
<rect x="122" y="29.36" width="2" height="61.27" fill="rgb(239,82,91)"/>
<rect x="124" y="35.15" width="2" height="49.7" fill="rgb(241,68,102)"/>
<rect x="126" y="39.27" width="2" height="41.45" fill="rgb(242,57,92)"/>
<rect x="128" y="42.22" width="2" height="35.56" fill="rgb(242,52,66)"/>
<rect x="130" y="44.34" width="2" height="31.33" fill="rgb(242,52,39)"/>
<rect x="132" y="45.86" width="2" height="28.29" fill="rgb(240,57,26)"/>
<rect x="134" y="46.96" width="2" height="26.08" fill="rgb(238,67,33)"/>
<rect x="136" y="47.76" width="2" height="24.48" fill="rgb(235,81,58)"/>
<rect x="138" y="48.34" width="2" height="23.31" fill="rgb(231,98,85)"/>
<rect x="140" y="48.77" width="2" height="22.45" fill="rgb(227,116,101)"/>
<rect x="142" y="49.09" width="2" height="21.83" fill="rgb(222,134,96)"/>
<rect x="144" y="49.31" width="2" height="21.38" fill="rgb(217,151,74)"/>
<rect x="146" y="49.47" width="2" height="21.06" fill="rgb(211,165,45)"/>
<rect x="148" y="49.58" width="2" height="20.84" fill="rgb(206,174,27)"/>
<rect x="150" y="26.15" width="2" height="67.71" fill="rgb(200,178,29)"/>
<rect x="152" y="32.83" width="2" height="54.35" fill="rgb(194,177,50)"/>
<rect x="154" y="37.58" width="2" height="44.84" fill="rgb(189,171,79)"/>
<rect x="156" y="40.96" width="2" height="38.08" fill="rgb(184,160,99)"/>
<rect x="158" y="43.36" width="2" height="33.29" fill="rgb(179,145,100)"/>
<rect x="160" y="45.05" width="2" height="29.91" fill="rgb(175,128,81)"/>
<rect x="162" y="46.23" width="2" height="27.55" fill="rgb(172,109,52)"/>
<rect x="164" y="47.04" width="2" height="25.92" fill="rgb(169,91,30)"/>
<rect x="166" y="47.59" width="2" height="24.83" fill="rgb(167,75,27)"/>
<rect x="168" y="47.94" width="2" height="24.12" fill="rgb(166,62,43)"/>
<rect x="170" y="48.15" width="2" height="23.7" fill="rgb(166,54,71)"/>
<rect x="172" y="48.26" width="2" height="23.49" fill="rgb(166,51,95)"/>
<rect x="174" y="48.28" width="2" height="23.44" fill="rgb(168,53,102)"/>
<rect x="176" y="48.25" width="2" height="23.5" fill="rgb(170,61,87)"/>
<rect x="178" y="48.17" width="2" height="23.65" fill="rgb(173,73,60)"/>
<rect x="180" y="20.99" width="2" height="78.01" fill="rgb(176,89,35)"/>
<rect x="182" y="28.25" width="2" height="63.5" fill="rgb(180,106,26)"/>
<rect x="184" y="33.48" width="2" height="53.05" fill="rgb(185,125,37)"/>
<rect x="186" y="37.23" width="2" height="45.55" fill="rgb(190,143,64)"/>
<rect x="188" y="39.91" width="2" height="40.19" fill="rgb(195,158,90)"/>
<rect x="190" y="41.80" width="2" height="36.39" fill="rgb(201,170,102)"/>
<rect x="192" y="43.14" width="2" height="33.73" fill="rgb(207,177,93)"/>
<rect x="194" y="44.06" width="2" height="31.87" fill="rgb(212,178,68)"/>
<rect x="196" y="44.69" width="2" height="30.62" fill="rgb(218,175,41)"/>
<rect x="198" y="45.11" width="2" height="29.78" fill="rgb(223,166,26)"/>
<rect x="200" y="45.37" width="2" height="29.26" fill="rgb(228,153,32)"/>
<rect x="202" y="45.52" width="2" height="28.95" fill="rgb(232,137,56)"/>
<rect x="204" y="45.61" width="2" height="28.79" fill="rgb(235,119,84)"/>
<rect x="206" y="45.63" width="2" height="28.73" fill="rgb(238,100,101)"/>
<rect x="208" y="45.63" width="2" height="28.74" fill="rgb(240,83,97)"/>
<rect x="210" y="12.92" width="2" height="94.15" fill="rgb(242,68,75)"/>
<rect x="212" y="21.99" width="2" height="76.02" fill="rgb(242,58,47)"/>
<rect x="214" y="28.54" width="2" height="62.93" fill="rgb(242,52,28)"/>
<rect x="216" y="33.25" width="2" height="53.49" fill="rgb(241,51,28)"/>
<rect x="218" y="36.66" width="2" height="46.69" fill="rgb(239,56,48)"/>
<rect x="220" y="39.11" width="2" height="41.78" fill="rgb(236,66,77)"/>
<rect x="222" y="40.88" width="2" height="38.24" fill="rgb(233,80,98)"/>
<rect x="224" y="42.16" width="2" height="35.67" fill="rgb(229,97,100)"/>
<rect x="226" y="43.09" width="2" height="33.81" fill="rgb(224,115,83)"/>
<rect x="228" y="43.78" width="2" height="32.43" fill="rgb(219,134,54)"/>
<rect x="230" y="44.30" width="2" height="31.4" fill="rgb(214,150,31)"/>
<rect x="232" y="44.70" width="2" height="30.61" fill="rgb(208,164,26)"/>
<rect x="234" y="45.01" width="2" height="29.99" fill="rgb(203,174,42)"/>
<rect x="236" y="45.26" width="2" height="29.48" fill="rgb(197,178,69)"/>
<rect x="238" y="45.48" width="2" height="29.05" fill="rgb(191,177,94)"/>
<rect x="240" y="13.14" width="2" height="93.72" fill="rgb(186,171,102)"/>
<rect x="242" y="22.74" width="2" height="74.52" fill="rgb(181,160,89)"/>
<rect x="244" y="29.62" width="2" height="60.76" fill="rgb(177,146,62)"/>
<rect x="246" y="34.56" width="2" height="50.88" fill="rgb(173,128,36)"/>
<rect x="248" y="38.12" width="2" height="43.75" fill="rgb(170,110,26)"/>
<rect x="250" y="40.70" width="2" height="38.59" fill="rgb(168,92,36)"/>
<rect x="252" y="42.59" width="2" height="34.82" fill="rgb(167,75,62)"/>
<rect x="254" y="43.98" width="2" height="32.05" fill="rgb(166,63,88)"/>
<rect x="256" y="45.02" width="2" height="29.97" fill="rgb(166,54,102)"/>
<rect x="258" y="45.80" width="2" height="28.39" fill="rgb(167,51,94)"/>
<rect x="260" y="46.42" width="2" height="27.16" fill="rgb(169,53,70)"/>
<rect x="262" y="46.91" width="2" height="26.18" fill="rgb(171,60,42)"/>
<rect x="264" y="47.31" width="2" height="25.38" fill="rgb(174,72,26)"/>
<rect x="266" y="47.64" width="2" height="24.72" fill="rgb(178,88,31)"/>
<rect x="268" y="47.93" width="2" height="24.14" fill="rgb(183,106,54)"/>
<rect x="270" y="21.34" width="2" height="77.31" fill="rgb(188,124,82)"/>
<rect x="272" y="29.45" width="2" height="61.09" fill="rgb(193,142,100)"/>
<rect x="274" y="35.22" width="2" height="49.56" fill="rgb(198,157,98)"/>
<rect x="276" y="39.33" width="2" height="41.34" fill="rgb(204,169,77)"/>
<rect x="278" y="42.27" width="2" height="35.47" fill="rgb(210,176,49)"/>
<rect x="280" y="44.37" width="2" height="31.26" fill="rgb(215,178,29)"/>
<rect x="282" y="45.89" width="2" height="28.22" fill="rgb(221,175,28)"/>
<rect x="284" y="46.98" width="2" height="26.03" fill="rgb(225,167,47)"/>
<rect x="286" y="47.78" width="2" height="24.43" fill="rgb(230,154,75)"/>
<rect x="288" y="48.37" width="2" height="23.27" fill="rgb(234,137,97)"/>
<rect x="290" y="48.79" width="2" height="22.42" fill="rgb(237,119,101)"/>
<rect x="292" y="49.10" width="2" height="21.8" fill="rgb(239,101,84)"/>
<rect x="294" y="49.32" width="2" height="21.36" fill="rgb(241,83,56)"/>
<path d="M150 0v120" stroke="#fff" stroke-opacity=".6"/>
</svg>
